<?xml version="1.0" encoding="utf-8"?>
<!-- Generator: Adobe Illustrator 27.1.1, SVG Export Plug-In . SVG Version: 6.00 Build 0)  -->
<svg version="1.1" id="Layer_1" xmlns="http://www.w3.org/2000/svg" xmlns:xlink="http://www.w3.org/1999/xlink" x="0px" y="0px"
	 viewBox="0 0 889.1 474.7" style="enable-background:new 0 0 889.1 474.7;" xml:space="preserve">
<style type="text/css">
	.st0{fill:#002FA7;}
	.st1{fill:#262835;}
</style>
<g>
	<g>
		<g>
			<path class="st0" d="M407.7,377.2c-15.6,21.4-38.6,36.8-63.7,44.6c-27.5,8.6-57.1,8.9-85.3,3.5c-28.4-5.4-56.1-16.6-77-37.1
				c-19.9-19.5-33.2-44.9-42.8-70.9c-10.6-28.7-16.5-59-17.7-89.6c-1.1-29.7,2.1-59.5,9.8-88.2c3.9-14.6,8.9-29.1,15.2-42.8
				c6-12.9,13.6-25.4,24.8-34.4c20-16,47.9-17.8,72.4-15.9c25.2,2,50.3,8.3,73.3,18.9c23,10.6,44,25.3,60.9,44.2
				c4.5,5,8.7,10.3,12.5,15.9c2.7,3.9,9.1,0.2,6.4-3.8c-15.2-22.4-36.2-40.8-59.6-54.3c-23-13.2-48.6-22-74.7-26.2
				c-26.2-4.2-54.7-5.1-79.5,5.6c-12.9,5.6-23.4,14.6-31.5,26c-9.1,12.8-15.2,27.5-20.5,42.2c-10.3,29.1-16.1,59.7-17.2,90.6
				c-1.1,31.4,2.7,63.2,11.3,93.2c8.3,28.8,20.5,57.2,39.1,80.9c8.8,11.2,19.2,21.3,31.1,29c12.7,8.2,26.5,14.4,41,18.8
				c28.9,8.7,60.1,11.4,89.9,6.2c28-4.8,54.6-17.4,74.9-37.6c4.7-4.7,9.1-9.8,13-15.2c1.2-1.6,0.3-4.1-1.3-5.1
				C411,374.7,408.9,375.5,407.7,377.2L407.7,377.2z"/>
			<path class="st0" d="M235.6,341.8c-23.4-3.1-46.4-9.2-68.8-16.6c-22-7.3-44.1-15.4-64.2-27.2c-18-10.5-34.2-24.5-44.2-43.1
				c-8.5-15.7-12.1-33.6-11.8-51.5c0.4-17.9,4.9-36.1,12.9-52.2c8.6-17.3,21.1-31.8,36.3-43.7c15.3-12,33.1-20.9,51.5-26.8
				c22.3-7.1,45.7-10.1,69-9.3c22.9,0.7,45.6,5.1,67.2,12.6c21.8,7.6,42.3,18.7,60.9,32.2c4.4,3.2,8.7,6.5,12.9,10
				c1.5,1.3,3.7,1.5,5.3,0c1.3-1.3,1.6-4,0-5.3c-18.4-15.2-38.6-28.2-60.6-37.7c-22-9.5-45.2-15.6-69-18.2
				c-24.3-2.6-49-1.4-72.8,4.3c-20.4,4.8-40.1,12.7-57.7,24.1c-17,11-32,25.3-43,42.4c-10.4,16.2-16.9,34.8-19.5,53.9
				c-2.5,18.6-0.8,38.1,5.8,55.7c3.4,9,7.9,17.6,13.8,25.3c7,9.2,15.3,17.1,24.6,24c19,14.1,41.2,23.4,63.3,31.4
				c22.9,8.4,46.3,15.6,70.2,20.1c5.9,1.1,11.8,2,17.8,2.8c2,0.3,3.7-1.9,3.7-3.7C239.3,343.3,237.6,342,235.6,341.8L235.6,341.8z"
				/>
			<path class="st0" d="M400.1,376.4c-17.4,17.3-38.6,30.1-61.8,38c-22.6,7.7-46.5,10.9-70.3,10c-24.9-0.9-50.1-6-73.1-15.7
				c-21.9-9.3-41.6-23.6-54.2-44c-12.4-20-17.7-43.6-18.4-67c-0.9-26.8,3.8-53.9,12.6-79.2c7.7-22.4,19.7-43.5,37-59.9
				c17.7-16.7,39.7-28.7,62.1-37.9c23.8-9.7,49.1-16.2,74.8-17.5c26.4-1.3,53.2,2.8,77.2,14.1c5.9,2.8,11.6,5.9,17,9.5
				c4,2.6,7.7-3.8,3.8-6.4c-23.3-15.3-51-23.2-78.7-24.6c-26.7-1.3-53.4,3-78.7,11.3c-12.7,4.2-25,9.3-37,15.3
				c-11.2,5.6-22,11.9-32,19.4c-10,7.5-19.2,16.1-27,26.1c-7.6,9.8-14,20.5-19.1,31.8c-5.2,11.7-9.3,23.8-12.4,36.2
				c-3.5,13.9-5.9,28-6.8,42.2c-1.7,25.6,1.2,52,11.5,75.7c4.7,10.8,11.1,20.9,18.9,29.8c8.4,9.4,18.6,17.2,29.5,23.5
				c22.7,13.1,48.9,20.2,74.7,23.3c24.6,3,49.8,1.7,73.9-4.1c24.3-5.8,47.6-16.5,67.3-31.9c5.1-4,9.8-8.2,14.4-12.8
				C408.8,378.3,403.5,373,400.1,376.4L400.1,376.4z"/>
			<path class="st0" d="M352.9,372c-22,10.1-44.8,18.1-68.8,21.7c-22.2,3.4-45.2,2.7-66.9-3.4c-19.4-5.5-37.8-15.2-52.5-29.1
				c-7.8-7.4-14.6-15.9-19.8-25.4c-5.8-10.5-9.8-21.9-12.3-33.6c-5.2-24.3-4.2-50.3-1.1-75.2c2.9-23.1,7.2-46.3,14.5-68.5
				c6.9-21,16.8-41.3,31.6-57.9c14.1-15.8,32.4-28.5,53.1-33.7c23.1-5.8,46.9-0.7,68.4,8.6c22.1,9.6,42.8,22.7,61,38.4
				c4.5,3.9,8.8,8,13,12.3c3.3,3.4,8.6-1.8,5.3-5.3c-17.5-18-38.3-33.1-60.6-44.7C296.1,65,272.1,56,247.3,57
				c-23.5,1-45.6,11.6-63.2,26.8c-17.2,14.9-29.8,34.1-38.7,55c-9.4,22.2-14.8,45.7-18.7,69.4c-4.2,25.7-6.9,52.1-4.2,78.1
				c2.7,25,10.6,49.2,26.5,69c13.4,16.6,31.4,28.9,51.1,37c21.1,8.6,44.1,11.8,66.8,10.6c24.9-1.3,49.4-7.7,72.6-17
				c5.8-2.3,11.5-4.9,17.2-7.5c1.8-0.8,2.3-3.5,1.3-5.1C356.9,371.4,354.7,371.1,352.9,372L352.9,372z"/>
			<path class="st0" d="M352.2,372.5c-6.9,5.4-14.6,10.1-22.3,14.3c-7.6,4.2-15.5,7.8-23.7,10.8c-16.4,6.1-33.6,10-51.1,11.1
				c-18.2,1.2-36.6-0.4-54.3-5.1c-18.1-4.8-35.2-12.8-50.7-23.1c-13.8-9.2-26.2-20.4-36.8-33.2c-10.6-12.7-19.3-27.2-25.4-42.5
				c-6.5-16.6-10.1-34.3-10.8-52c-0.7-16.8,1.2-33.6,5.6-49.8c4.4-16.2,11.3-31.6,20.6-45.5c10.6-15.8,24.4-29,38.6-41.5
				c3.8-3.3,7.6-6.6,11.4-9.9c1.5-1.3,1.3-3.9,0-5.3c-1.5-1.5-3.7-1.3-5.3,0c-15.4,13.2-30.9,26.6-43.5,42.6
				c-11,13.9-19.5,29.5-25.4,46.2c-5.8,16.5-9,34-9.5,51.5c-0.6,17.8,1.7,35.7,6.7,52.9c5.1,17.4,13.3,33.9,23.8,48.6
				c10.2,14.2,22.5,26.7,36.3,37.4c14.8,11.4,31.5,20.5,49.1,26.8c18.2,6.5,37.6,9.8,56.9,9.9c18.2,0.1,36.5-2.6,53.9-7.8
				c17.4-5.2,34.1-12.9,49.3-22.8c4-2.6,7.9-5.3,11.7-8.2c1.6-1.2,1.3-4,0-5.3C355.8,371,353.7,371.3,352.2,372.5L352.2,372.5z"/>
			<g>
				<path class="st0" d="M346.6,378.9c2.8-1.2,5.4-2.5,8.2-3.7c-1.7,1.3-3.5,2.6-5.4,3.9h-3.2C346.4,379,346.5,379,346.6,378.9z"/>
				<path class="st0" d="M349.7,379.8h-6.9l3.1-1.5c0.1-0.1,0.2-0.1,0.3-0.1l0.1,0c2.1-0.9,4.1-1.9,6.2-2.8l8.3-3.8l-5.5,4.3
					c-1.5,1.2-3.2,2.4-5.4,3.9L349.7,379.8z"/>
			</g>
		</g>
	</g>
	<g>
		<g>
			<path class="st1" d="M398.9,209.8h15.9V286h-15.9V209.8z"/>
			<path class="st1" d="M482.2,224.6h-20.4V286h-15.9v-61.4h-20.4v-14.7h56.7V224.6z"/>
			<path class="st1" d="M528.1,253.6V286h-16.3v-32.5l-25.6-43.7h16.9l16.9,29.4l17-29.4h16.9L528.1,253.6z"/>
			<path class="st1" d="M316.8,286v-40.9c0-20.1,16.4-36.5,36.5-36.5s36.5,16.4,36.5,36.5V286H375v-40.9c0-11.4-9.3-20.7-20.7-20.7
				c-11.4,0-21.8,9.3-21.8,20.7V286H316.8z"/>
			<path class="st1" d="M234.2,209.8v40.9c0,20.1,16.4,36.5,36.5,36.5c20.1,0,36.5-16.4,36.5-36.5v-40.9h-14.7v40.9
				c0,11.4-9.3,20.7-20.7,20.7c-11.4,0-21.8-9.3-21.8-20.7v-40.9H234.2z"/>
		</g>
		<g>
			<path class="st1" d="M721.9,271.2V286h-45.2v-76.2h44.1v14.7h-28.2V240H718v14.4h-25.5v16.8H721.9z"/>
			<path class="st1" d="M730.4,261.1h16.5c0,7.3,6,10.8,12.7,10.8c6.1,0,12.2-3.2,12.2-8.9c0-5.9-6.9-7.5-15.1-9.4
				c-11.4-2.8-25.2-6.1-25.2-22.4c0-14.5,10.7-22.6,27.4-22.6c17.4,0,27.2,9.3,27.2,24.3h-16.1c0-6.5-5.4-9.5-11.5-9.5
				c-5.3,0-10.7,2.2-10.7,7.2c0,5.3,6.6,6.9,14.5,8.8c11.5,2.9,26,6.5,26,23.4c0,16.3-13,24.2-28.6,24.2
				C742.3,287.1,730.4,277.3,730.4,261.1z"/>
			<path class="st1" d="M849.9,224.6h-20.4V286h-15.9v-61.4h-20.4v-14.7h56.7V224.6z"/>
			<path class="st1" d="M590.7,286v-40.9c0-20.1,16.4-36.5,36.5-36.5s36.5,16.4,36.5,36.5V286h-15.7v-40.9
				c0-11.4-9.3-20.7-20.7-20.7c-11.4,0-20.7,9.3-20.7,20.7V286H590.7z"/>
		</g>
	</g>
</g>
</svg>
