<?xml version="1.0" encoding="utf-8"?>
<!-- Generator: Adobe Illustrator 27.1.1, SVG Export Plug-In . SVG Version: 6.00 Build 0)  -->
<svg version="1.1" id="Layer_1" xmlns="http://www.w3.org/2000/svg" xmlns:xlink="http://www.w3.org/1999/xlink" x="0px" y="0px"
	 viewBox="0 0 217 109.5" style="enable-background:new 0 0 217 109.5;" xml:space="preserve">
<style type="text/css">
	.st0{fill:#95B3EF;}
	.st1{fill:#262835;}
</style>
<g>
	<g>
		<g>
			<path class="st0" d="M98.9,91.4c-4.1,5.6-10.1,9.6-16.7,11.7c-7.2,2.2-15,2.3-22.4,0.9c-7.4-1.4-14.7-4.4-20.2-9.7
				c-5.2-5.1-8.7-11.8-11.2-18.6c-2.8-7.5-4.3-15.5-4.6-23.5c-0.3-7.8,0.5-15.6,2.6-23.1c1-3.8,2.3-7.6,4-11.2
				c1.6-3.4,3.6-6.7,6.5-9c5.2-4.2,12.6-4.7,19-4.2C62.4,5.2,69,6.9,75,9.7c6,2.8,11.5,6.6,16,11.6c1.2,1.3,2.3,2.7,3.3,4.2
				c0.7,1,2.4,0.1,1.7-1c-4-5.9-9.5-10.7-15.6-14.2c-6-3.5-12.7-5.8-19.6-6.9C53.9,2.3,46.4,2,39.9,4.8c-3.4,1.5-6.1,3.8-8.3,6.8
				c-2.4,3.3-4,7.2-5.4,11.1c-2.7,7.6-4.2,15.7-4.5,23.7c-0.3,8.2,0.7,16.6,3,24.4c2.2,7.6,5.4,15,10.3,21.2c2.3,2.9,5,5.6,8.2,7.6
				c3.3,2.2,7,3.8,10.8,4.9c7.6,2.3,15.8,3,23.6,1.6c7.4-1.3,14.3-4.6,19.6-9.8c1.2-1.2,2.4-2.6,3.4-4c0.3-0.4,0.1-1.1-0.3-1.3
				C99.7,90.8,99.2,91,98.9,91.4L98.9,91.4z"/>
			<path class="st0" d="M53.7,82.1c-6.1-0.8-12.2-2.4-18-4.4c-5.8-1.9-11.6-4-16.8-7.1c-4.7-2.8-9-6.4-11.6-11.3
				C5,55.2,4.1,50.5,4.2,45.9c0.1-4.7,1.3-9.5,3.4-13.7c2.3-4.5,5.5-8.3,9.5-11.5c4-3.1,8.7-5.5,13.5-7c5.9-1.9,12-2.6,18.1-2.4
				c6,0.2,12,1.3,17.6,3.3c5.7,2,11.1,4.9,16,8.5c1.2,0.8,2.3,1.7,3.4,2.6c0.4,0.3,1,0.4,1.4,0c0.3-0.3,0.4-1,0-1.4
				c-4.8-4-10.1-7.4-15.9-9.9c-5.8-2.5-11.8-4.1-18.1-4.8C46.7,8.9,40.2,9.3,34,10.7c-5.3,1.3-10.5,3.3-15.1,6.3
				c-4.4,2.9-8.4,6.6-11.3,11.1c-2.7,4.3-4.4,9.1-5.1,14.1c-0.6,4.9-0.2,10,1.5,14.6c0.9,2.4,2.1,4.6,3.6,6.6c1.8,2.4,4,4.5,6.4,6.3
				c5,3.7,10.8,6.1,16.6,8.2c6,2.2,12.1,4.1,18.4,5.3c1.5,0.3,3.1,0.5,4.7,0.7c0.5,0.1,1-0.5,1-1C54.7,82.5,54.2,82.2,53.7,82.1
				L53.7,82.1z"/>
			<path class="st0" d="M96.9,91.2c-4.6,4.5-10.1,7.9-16.2,10c-5.9,2-12.2,2.8-18.4,2.6c-6.5-0.2-13.1-1.6-19.2-4.1
				c-5.7-2.4-10.9-6.2-14.2-11.5c-3.3-5.2-4.6-11.4-4.8-17.6c-0.2-7,1-14.1,3.3-20.8c2-5.9,5.2-11.4,9.7-15.7
				c4.6-4.4,10.4-7.5,16.3-9.9c6.2-2.5,12.9-4.2,19.6-4.6c6.9-0.3,13.9,0.7,20.3,3.7c1.5,0.7,3,1.6,4.5,2.5c1.1,0.7,2-1,1-1.7
				c-6.1-4-13.4-6.1-20.6-6.4c-7-0.3-14,0.8-20.6,3c-3.3,1.1-6.6,2.4-9.7,4c-2.9,1.5-5.8,3.1-8.4,5.1c-2.6,2-5,4.2-7.1,6.8
				c-2,2.6-3.7,5.4-5,8.3c-1.4,3.1-2.4,6.2-3.2,9.5c-0.9,3.6-1.5,7.3-1.8,11.1c-0.4,6.7,0.3,13.6,3,19.8c1.2,2.8,2.9,5.5,5,7.8
				c2.2,2.5,4.9,4.5,7.7,6.2c6,3.4,12.8,5.3,19.6,6.1c6.5,0.8,13.1,0.4,19.4-1.1c6.4-1.5,12.5-4.3,17.6-8.4c1.3-1,2.6-2.2,3.8-3.4
				C99.1,91.7,97.7,90.3,96.9,91.2L96.9,91.2z"/>
			<path class="st0" d="M84.5,90.1c-5.8,2.7-11.8,4.7-18,5.7c-5.8,0.9-11.9,0.7-17.6-0.9c-5.1-1.4-9.9-4-13.8-7.6
				c-2.1-1.9-3.8-4.2-5.2-6.6c-1.5-2.8-2.6-5.7-3.2-8.8c-1.4-6.4-1.1-13.2-0.3-19.7c0.8-6.1,1.9-12.2,3.8-18
				c1.8-5.5,4.4-10.8,8.3-15.2c3.7-4.1,8.5-7.5,13.9-8.8c6-1.5,12.3-0.2,17.9,2.3c5.8,2.5,11.2,5.9,16,10.1c1.2,1,2.3,2.1,3.4,3.2
				c0.9,0.9,2.3-0.5,1.4-1.4c-4.6-4.7-10-8.7-15.9-11.7c-5.7-3-12-5.3-18.5-5.1c-6.2,0.2-11.9,3-16.6,7c-4.5,3.9-7.8,8.9-10.1,14.4
				c-2.5,5.8-3.9,12-4.9,18.2c-1.1,6.7-1.8,13.7-1.1,20.5c0.7,6.6,2.8,12.9,6.9,18.1c3.5,4.4,8.2,7.6,13.4,9.7
				c5.5,2.3,11.6,3.1,17.5,2.8c6.5-0.3,13-2,19-4.5c1.5-0.6,3-1.3,4.5-2c0.5-0.2,0.6-0.9,0.3-1.3C85.5,89.9,85,89.8,84.5,90.1
				L84.5,90.1z"/>
			<path class="st0" d="M84.3,90.2c-1.8,1.4-3.8,2.6-5.8,3.8c-2,1.1-4.1,2-6.2,2.8c-4.3,1.6-8.8,2.6-13.4,2.9
				c-4.8,0.3-9.6-0.1-14.2-1.3c-4.7-1.3-9.2-3.3-13.3-6.1c-3.6-2.4-6.9-5.4-9.7-8.7c-2.8-3.3-5.1-7.1-6.7-11.2
				c-1.7-4.3-2.6-9-2.8-13.6c-0.2-4.4,0.3-8.8,1.5-13.1c1.2-4.2,3-8.3,5.4-11.9c2.8-4.1,6.4-7.6,10.1-10.9c1-0.9,2-1.7,3-2.6
				c0.4-0.3,0.4-1,0-1.4c-0.4-0.4-1-0.3-1.4,0c-4,3.5-8.1,7-11.4,11.2c-2.9,3.6-5.1,7.7-6.7,12.1c-1.5,4.3-2.4,8.9-2.5,13.5
				c-0.1,4.7,0.4,9.4,1.8,13.9c1.3,4.6,3.5,8.9,6.3,12.8c2.7,3.7,5.9,7,9.5,9.8c3.9,3,8.3,5.4,12.9,7c4.8,1.7,9.9,2.6,14.9,2.6
				c4.8,0,9.6-0.7,14.1-2.1c4.6-1.4,8.9-3.4,12.9-6c1-0.7,2.1-1.4,3.1-2.2c0.4-0.3,0.3-1,0-1.4C85.2,89.8,84.7,89.9,84.3,90.2
				L84.3,90.2z"/>
			<g>
				<path class="st0" d="M82.8,91.9c0.7-0.3,1.4-0.6,2.1-1c-0.4,0.4-0.9,0.7-1.4,1L82.8,91.9C82.8,91.9,82.8,91.9,82.8,91.9z"/>
				<path class="st0" d="M83.6,92.1h-1.8l0.8-0.4c0,0,0.1,0,0.1,0l0,0c0.5-0.2,1.1-0.5,1.6-0.7l2.2-1l-1.4,1.1
					C84.7,91.4,84.2,91.7,83.6,92.1L83.6,92.1z"/>
			</g>
		</g>
	</g>
	<g>
		<g>
			<path class="st1" d="M96.5,47.5h4.2v20h-4.2V47.5z"/>
			<path class="st1" d="M118.4,51.4H113v16.1h-4.2V51.4h-5.3v-3.9h14.9V51.4z"/>
			<path class="st1" d="M130.4,59v8.5h-4.3V59l-6.7-11.4h4.4l4.4,7.7l4.4-7.7h4.4L130.4,59z"/>
			<path class="st1" d="M75,67.5V56.8c0-5.3,4.3-9.6,9.6-9.6c5.3,0,9.6,4.3,9.6,9.6v10.7h-3.9V56.8c0-3-2.4-5.4-5.4-5.4
				c-3,0-5.7,2.4-5.7,5.4v10.7H75z"/>
			<path class="st1" d="M53.4,47.5v10.7c0,5.3,4.3,9.6,9.6,9.6s9.6-4.3,9.6-9.6V47.5h-3.9v10.7c0,3-2.4,5.4-5.4,5.4
				c-3,0-5.7-2.4-5.7-5.4V47.5H53.4z"/>
		</g>
		<g>
			<path class="st1" d="M181.2,63.6v3.9h-11.9v-20h11.6v3.8h-7.4v4.1h6.7v3.8h-6.7v4.4H181.2z"/>
			<path class="st1" d="M183.4,61h4.3c0,1.9,1.6,2.8,3.3,2.8c1.6,0,3.2-0.9,3.2-2.3c0-1.5-1.8-2-4-2.5c-3-0.7-6.6-1.6-6.6-5.9
				c0-3.8,2.8-5.9,7.2-5.9c4.5,0,7.1,2.4,7.1,6.4h-4.2c0-1.7-1.4-2.5-3-2.5c-1.4,0-2.8,0.6-2.8,1.9c0,1.4,1.7,1.8,3.8,2.3
				c3,0.8,6.8,1.7,6.8,6.1c0,4.3-3.4,6.3-7.5,6.3C186.6,67.8,183.4,65.2,183.4,61z"/>
			<path class="st1" d="M214.8,51.4h-5.4v16.1h-4.2V51.4h-5.3v-3.9h14.9V51.4z"/>
			<path class="st1" d="M146.8,67.5V56.8c0-5.3,4.3-9.6,9.6-9.6s9.6,4.3,9.6,9.6v10.7h-4.1V56.8c0-3-2.4-5.4-5.4-5.4
				c-3,0-5.4,2.4-5.4,5.4v10.7H146.8z"/>
		</g>
	</g>
</g>
</svg>
