<?xml version="1.0" encoding="utf-8"?>
<!-- Generator: Adobe Illustrator 27.1.1, SVG Export Plug-In . SVG Version: 6.00 Build 0)  -->
<svg version="1.1" id="Layer_1" xmlns="http://www.w3.org/2000/svg" xmlns:xlink="http://www.w3.org/1999/xlink" x="0px" y="0px"
	 viewBox="0 0 36 36" style="enable-background:new 0 0 36 36;" xml:space="preserve">
<style type="text/css">
	.st0{fill:#95B3EF;}
	.st1{fill:#262835;}
</style>
<g>
	<g>
		<path class="st0" d="M25.7,32.8c-1.3,1-3,1.2-4.5,1.1c-0.8,0-1.7-0.2-2.5-0.3c-0.9-0.2-1.8-0.4-2.7-0.6c-1.8-0.6-3.5-1.5-4.9-2.9
			c-1.3-1.4-2.2-3.1-2.9-4.8c-0.8-1.9-1.3-3.9-1.6-6c-0.2-2-0.3-4,0-6c0.2-2,0.7-4,1.5-5.9c0.4-0.9,0.8-1.9,1.4-2.7
			c0.5-0.7,1.2-1.3,2-1.7c1.5-0.8,3.4-0.9,5.1-0.8c1.7,0.1,3.4,0.5,5,1.1c1.6,0.6,3.1,1.4,4.4,2.5c1.1,0.9,1.9,1.8,2.7,2.9
			c0.2,0.2,0.3,0.5,0.5,0.8c0.3,0.5,0.6,1.1,0.9,1.7c0.2,0.4,0.4,0.7,0.5,1.1c0,0.1,0.1,0.2,0.1,0.3c0,0.1,0,0.1,0.1,0.2
			c0,0,0,0,0,0c0,0,0,0.1,0,0.1c0.1,0.2,0.2,0.4,0.3,0.7c0.4,1,0.7,2,0.9,3c0.2,1.1,0.4,2.2,0.4,3.4c0,1.2-0.1,2.5-0.4,3.7
			c-0.3,1.3-0.8,2.6-1.5,3.8c-0.8,1.4-1.8,2.7-2.9,3.8C27.1,31.7,26.4,32.3,25.7,32.8c-0.1,0.1-0.1,0.3,0,0.4c0.1,0.1,0.3,0.1,0.4,0
			c1.4-1.1,2.7-2.4,3.8-3.9c0.9-1.2,1.6-2.5,2.2-4c0.5-1.3,0.8-2.6,0.9-3.9c0.1-1.2,0.1-2.4-0.1-3.6c-0.1-1.1-0.4-2.2-0.7-3.3
			c-0.3-1-0.7-1.9-1.1-2.8c-0.3-0.7-0.7-1.4-1-2c-0.2-0.4-0.5-0.8-0.7-1.2c-0.4-0.6-0.9-1.3-1.5-1.9c-1.2-1.3-2.7-2.4-4.2-3.2
			c-1.6-0.8-3.3-1.4-5.1-1.7c-1.8-0.3-3.6-0.5-5.4-0.1c-0.9,0.2-1.7,0.4-2.5,0.9c-0.8,0.5-1.5,1.2-2,2c-0.6,0.9-1,1.8-1.4,2.8
			c-0.4,1-0.7,2-0.9,3c-0.5,2-0.7,4.1-0.7,6.2c0,2.1,0.3,4.2,0.9,6.3c0.6,2,1.3,3.9,2.5,5.7c1.1,1.6,2.4,3,4.1,4
			c1.7,1,3.6,1.4,5.5,1.8c1.7,0.3,3.5,0.5,5.2,0.1c0.8-0.2,1.5-0.6,2.2-1.1c0.1-0.1,0.1-0.3,0-0.4C26,32.7,25.8,32.7,25.7,32.8z"/>
		<path class="st0" d="M21.1,28.2c-0.9,0.3-1.8,0.6-2.8,0.8c-0.4,0.1-0.9,0.2-1.3,0.3c-0.2,0-0.4,0.1-0.6,0.1c-0.1,0-0.2,0-0.3,0
			c0,0-0.1,0-0.1,0c0,0-0.1,0-0.1,0c0,0-0.1,0,0,0c-1.5,0.2-3,0.3-4.5,0.1c-0.1,0-0.2,0-0.2,0c0,0-0.1,0-0.1,0c0,0,0,0-0.1,0
			c-0.1,0,0.1,0,0,0c-0.2,0-0.3,0-0.5-0.1c-0.3-0.1-0.6-0.1-0.9-0.2c-0.6-0.1-1.2-0.3-1.7-0.6c0,0-0.1,0-0.1,0c-0.1,0,0.1,0,0,0
			c0,0,0,0,0,0c-0.1,0-0.1-0.1-0.2-0.1c-0.1-0.1-0.3-0.1-0.4-0.2c-0.2-0.1-0.5-0.3-0.7-0.4c-0.2-0.1-0.5-0.3-0.7-0.4
			c-0.1-0.1-0.2-0.2-0.3-0.2c0,0,0.1,0,0,0c0,0,0,0,0,0c0,0,0,0-0.1-0.1C5.1,27.1,5,27.1,5,27c-0.4-0.3-0.8-0.7-1.1-1.1
			c-0.1-0.1-0.2-0.2-0.3-0.3c0-0.1-0.1-0.1-0.1-0.2c0,0,0,0-0.1-0.1c0,0,0,0,0,0c0.1,0.1,0,0,0,0c-0.2-0.2-0.3-0.4-0.5-0.6
			c-0.3-0.4-0.5-0.9-0.8-1.4C2.1,23.3,2,23.1,2,23c0,0,0-0.1,0-0.1c0,0,0-0.1,0,0c0-0.1-0.1-0.1-0.1-0.2c-0.1-0.2-0.2-0.5-0.3-0.7
			c-0.2-0.5-0.3-1-0.4-1.5c-0.1-0.3-0.1-0.5-0.1-0.8c0,0,0-0.1,0-0.1c0,0,0,0,0,0c0,0,0,0.1,0,0c0-0.1,0-0.1,0-0.2
			c0-0.1,0-0.3,0-0.4c-0.1-1.1-0.1-2.1,0.1-3.2c0-0.1,0-0.1,0-0.2c0,0,0,0.1,0,0c0,0,0,0,0-0.1c0,0,0-0.1,0-0.1c0-0.1,0-0.3,0.1-0.4
			c0-0.3,0.1-0.5,0.2-0.8c0.1-0.5,0.3-1,0.4-1.6c0.1-0.3,0.2-0.5,0.3-0.8c0-0.1,0-0.1,0.1-0.2c0,0,0-0.1,0-0.1c0,0.1,0,0,0,0
			c0.1-0.1,0.1-0.2,0.2-0.4c0.2-0.5,0.5-1,0.8-1.4c0.1-0.2,0.3-0.4,0.4-0.7C3.5,9,3.6,8.9,3.7,8.8c0-0.1,0.1-0.1,0.1-0.2
			c0,0,0,0,0.1-0.1c0-0.1,0,0.1,0,0c0,0,0,0,0,0C4.2,8.1,4.6,7.7,5,7.4C5.1,7.2,5.3,7,5.5,6.8c0.1-0.1,0.2-0.2,0.3-0.3
			c0.1,0,0.1-0.1,0.2-0.1c0.1-0.1,0,0,0,0c0,0,0.1,0,0.1-0.1C6.5,6.1,7,5.8,7.4,5.5c0.2-0.1,0.5-0.2,0.7-0.4c0.1,0,0.1-0.1,0.2-0.1
			c0,0,0.1,0,0.1,0c-0.1,0,0,0,0.1,0C8.6,5,8.7,4.9,8.9,4.9c0.5-0.2,1-0.3,1.4-0.4c0.7-0.1,1.4-0.2,2-0.3C15,4,17.8,4.4,20.3,5.4
			c0.6,0.2,1.2,0.5,1.8,0.8c0.4,0.2,0.8,0.5,1.2,0.7c0.5,0.3,1,0.5,1.5,0.8c0.3,0.2,0.7,0.4,1,0.7c0,0,0.1,0,0,0c0,0,0,0,0.1,0.1
			c0,0,0.1,0.1,0.1,0.1c0.1,0.1,0.2,0.1,0.3,0.2c0.2,0.1,0.3,0.3,0.5,0.5c0.7,0.7,1.3,1.5,1.8,2.4c0.3,0.6,0.6,1.3,0.7,1.9
			c0.1,0.3,0.1,0.6,0.2,0.9c0,0.1,0,0.2,0,0.2c0,0.1,0,0,0,0c0,0,0,0.1,0,0.1c0,0.2,0,0.3,0,0.5c0.1,0.7,0.1,1.4,0,2
			c0,0.2,0,0.4,0,0.5c0,0.1,0,0.2,0,0.3c0,0,0,0.1,0,0c0,0,0,0,0,0.1c0,0,0,0.1,0,0.1c-0.1,0.4-0.1,0.7-0.2,1.1
			c-0.1,0.4-0.2,0.7-0.3,1.1c-0.1,0.2-0.1,0.4-0.2,0.5c0,0.1-0.1,0.2-0.1,0.2c0,0,0,0.1-0.1,0.1c0,0,0,0,0,0c0-0.1,0,0,0,0
			c-0.3,0.7-0.7,1.4-1.1,2.1c-0.1,0.2-0.2,0.3-0.4,0.5c0,0,0,0.1-0.1,0.1c0,0-0.1,0.1-0.1,0.1c-0.1,0.1-0.1,0.2-0.2,0.3
			c-0.3,0.3-0.6,0.6-0.9,0.9c-0.7,0.6-1.3,1.1-2.1,1.6C22.8,27.5,22,27.9,21.1,28.2c-0.2,0.1-0.3,0.2-0.2,0.4c0,0.2,0.2,0.3,0.4,0.2
			c1.9-0.6,3.6-1.6,5.1-3c1.2-1.1,2.2-2.5,2.8-4.1c0.6-1.4,1-2.9,1.1-4.5c0.1-1.3,0-2.7-0.3-3.9c-0.4-1.7-1.4-3.3-2.6-4.5
			c-0.6-0.6-1.3-1.1-2-1.6c-0.5-0.3-1-0.6-1.5-0.9c-0.4-0.2-0.8-0.5-1.2-0.7c-0.6-0.3-1.3-0.6-1.9-0.8c-1.3-0.5-2.6-0.8-3.9-1
			c-1.4-0.2-2.8-0.3-4.2-0.2c-0.7,0.1-1.4,0.1-2.2,0.3C9.7,4,9.2,4.1,8.7,4.3c-1,0.4-2,0.9-2.9,1.6C4.9,6.5,4.2,7.2,3.5,8.1
			C2.8,9,2.2,9.9,1.8,10.9c-0.5,1-0.8,2.1-1.1,3.1c-0.2,1.1-0.4,2.2-0.4,3.3c0,1.1,0.1,2.2,0.3,3.3c0.2,1.1,0.6,2.1,1,3.1
			c0.5,1,1.1,1.9,1.8,2.7C4.1,27.2,5,27.9,6,28.5c1,0.6,2.2,1.1,3.4,1.4c1.4,0.3,2.8,0.5,4.2,0.4c1.7,0,3.4-0.3,5-0.7
			c0.9-0.2,1.8-0.5,2.7-0.8c0.2-0.1,0.3-0.2,0.2-0.4C21.4,28.3,21.2,28.2,21.1,28.2z"/>
		<path class="st0" d="M29.4,29.4c-0.7,0.5-1.3,1.2-2,1.6c-0.7,0.4-1.4,0.8-2.2,1.1c-1.5,0.6-3.2,1-4.8,1.1c-1.7,0.1-3.4,0-5.1-0.4
			c-1.7-0.4-3.3-1-4.7-1.9c-1.4-0.9-2.4-2.1-3.1-3.6c-0.7-1.5-1-3.2-1-4.8c0-1.9,0.3-3.8,0.8-5.6c0.5-1.6,1.2-3.1,2.2-4.4
			c1-1.3,2.4-2.4,3.8-3.2c1.5-0.9,3.2-1.5,4.9-2c1.7-0.5,3.5-0.7,5.3-0.6c0.5,0,0.9,0.1,1.4,0.1c0.2,0,0.5,0.1,0.7,0.1
			c0.2,0,0.4,0.1,0.6,0.1c0.2,0,0.4,0,0.6,0c0,0,0,0,0.1,0c0,0,0,0,0,0c0,0-0.1,0,0,0c0,0,0.1,0,0.1,0c0.1,0,0.2,0,0.3,0.1
			c0.4,0.1,0.8,0.2,1.2,0.4c0.1,0,0,0,0,0c0,0,0,0,0.1,0c0,0,0.1,0,0.1,0.1c0.1,0,0.2,0.1,0.3,0.1c0.2,0.1,0.4,0.2,0.6,0.3
			c0.2,0.1,0.4,0.2,0.5,0.4c0,0,0.1,0.1,0.1,0.1c0,0,0,0,0.1,0.1c0,0,0.1,0.1,0.1,0c0,0,0,0,0,0c0,0,0,0,0.1,0.1
			c0,0,0.1,0.1,0.1,0.1c0.4,0.3,0.7,0.6,1,1c0.2,0.2,0.3,0.4,0.5,0.5c0.1,0.1,0.2,0.2,0.2,0.3c0,0,0,0,0,0.1c0,0.1,0,0,0,0
			c0,0,0.1,0.1,0.1,0.1c0.3,0.4,0.6,0.8,0.8,1.3c0.3,0.4,0.5,0.9,0.7,1.4c0,0,0,0.1,0,0.1c0,0,0,0.1,0,0.1c0,0,0,0.1,0,0.1
			c0,0,0,0.1,0,0.1c0,0.1,0.1,0.2,0.1,0.4c0.1,0.2,0.2,0.5,0.3,0.7c0.2,0.5,0.3,1,0.4,1.6c0,0.1,0,0.3,0.1,0.4c0,0,0,0.1,0,0.1
			c0,0,0,0,0,0c0,0.1,0,0,0,0c0,0.1,0,0.1,0,0.2c0,0.3,0.1,0.5,0.1,0.8c0,0.6,0,1.1,0,1.7c0,0.1,0,0.3,0,0.4c0,0.2,0,0.2-0.1,0.4
			c0,0.3-0.1,0.6-0.2,0.8c-0.3,1.2-0.7,2.3-1.3,3.3c-0.7,1.2-1.5,2.2-2.4,3.2C30.6,28.4,30,28.9,29.4,29.4c-0.1,0.1-0.1,0.3,0,0.4
			c0.1,0.1,0.3,0.1,0.4,0c1.2-0.9,2.3-2,3.2-3.2c0.8-1,1.4-2.2,1.9-3.4c0.4-1.1,0.7-2.3,0.8-3.5c0.1-1.1,0-2.3-0.2-3.4
			c-0.2-1.1-0.5-2.1-1-3.1c-0.4-0.9-1-1.8-1.6-2.7c-0.6-0.8-1.3-1.5-2-2.1c-0.7-0.6-1.5-1.1-2.4-1.4c-0.4-0.2-0.8-0.3-1.2-0.4
			c-0.2,0-0.4-0.1-0.7-0.1c-0.1,0-0.2,0-0.3,0c-0.1,0-0.2,0-0.3,0c-1.9-0.4-3.8-0.5-5.7-0.2c-1.8,0.2-3.6,0.8-5.3,1.5
			c-1.6,0.7-3.2,1.6-4.5,2.7c-1.3,1.1-2.3,2.5-3,4.1c-0.8,1.7-1.3,3.5-1.5,5.3c-0.3,1.9-0.2,3.8,0.2,5.6c0.4,1.6,1.1,3.2,2.2,4.4
			c1.2,1.3,2.7,2.2,4.3,2.9c1.7,0.7,3.5,1,5.3,1.1c1.7,0.1,3.5,0,5.1-0.4c1.7-0.4,3.2-1.1,4.7-2c0.7-0.5,1.3-1.1,2-1.7
			c0.1-0.1,0.1-0.3,0-0.4C29.7,29.2,29.6,29.3,29.4,29.4z"/>
		<path class="st0" d="M25.5,29c-1.6,0.7-3.2,1.3-4.9,1.7c-1.6,0.3-3.3,0.4-5,0.2c-1.4-0.2-2.8-0.7-4.1-1.5
			c-1.3-0.8-2.4-1.8-3.1-3.1c-0.9-1.5-1.3-3.2-1.4-4.9c-0.1-1.8,0-3.6,0.3-5.4C7.7,14.2,8,12.6,8.6,11c0.5-1.5,1.2-2.9,2.3-4.2
			c1-1.1,2.1-2.1,3.5-2.7c0.8-0.3,1.6-0.5,2.4-0.6c0.8,0,1.7,0.1,2.5,0.3c1.6,0.4,3.2,1.2,4.6,2.1c0.7,0.5,1.4,1,2.1,1.5
			c0.4,0.4,0.9,0.8,1.3,1.2c0.1,0.1,0.1,0.1,0.1,0.2c0,0.1,0.1,0.1,0.1,0.2c0,0.1,0-0.1,0,0c0,0,0,0,0,0.1c0,0,0.1,0.1,0.1,0.1
			c0.3,0.4,0.6,0.9,0.9,1.3c0.4,0.6,0.7,1.3,1,1.9c0,0.1,0.1,0.2,0.1,0.3c0,0,0,0,0,0c0,0,0,0,0,0c0,0,0,0,0,0.1c0,0,0,0.1,0.1,0.1
			c0.1,0.2,0.2,0.4,0.2,0.6c0.2,0.4,0.3,0.9,0.4,1.3c0.1,0.5,0.2,0.9,0.3,1.4c0,0.1,0,0.1,0,0.2c0,0,0,0.1,0,0.1c0,0,0,0,0,0
			c0,0,0,0,0,0.1c0,0.1,0,0.3,0,0.4c0,0.2,0,0.5,0.1,0.7c0,1.1,0,2.1-0.3,3.2c-0.3,1.2-0.7,2.3-1.3,3.4c-0.7,1.3-1.6,2.4-2.6,3.5
			c-0.6,0.6-1.2,1.2-1.8,1.7c-0.1,0.1-0.1,0.3,0,0.4c0.1,0.1,0.3,0.1,0.4,0c1.3-1.1,2.5-2.3,3.4-3.6c0.8-1.1,1.5-2.3,2-3.6
			c0.4-1.1,0.7-2.3,0.8-3.4c0.1-1.1,0-2.1-0.1-3.2c-0.2-0.9-0.4-1.8-0.7-2.7c-0.3-0.8-0.6-1.6-1-2.3c-0.3-0.6-0.6-1.1-1-1.6
			c-0.2-0.3-0.5-0.6-0.7-1c0,0-0.1-0.1-0.1-0.1c-0.5-0.6-1.1-1.1-1.7-1.5c-1.4-1.1-2.9-2.1-4.5-2.8c-1.6-0.7-3.4-1.2-5.1-1
			c-1.7,0.2-3.2,0.9-4.5,2c-1.2,1-2.2,2.3-2.9,3.7c-0.8,1.5-1.3,3.2-1.7,4.8c-0.4,1.8-0.7,3.5-0.8,5.3c-0.1,1.8,0,3.7,0.5,5.5
			c0.5,1.6,1.4,3.1,2.6,4.2c1.1,1,2.5,1.8,3.9,2.3c1.5,0.5,3.2,0.7,4.8,0.7c1.8-0.1,3.5-0.5,5.2-1c0.8-0.3,1.6-0.6,2.4-1
			c0.2-0.1,0.2-0.3,0.1-0.4C25.9,29,25.7,28.9,25.5,29L25.5,29z"/>
		<path class="st0" d="M25.5,29.1c-0.6,0.4-1.2,0.8-1.8,1.2c-0.6,0.3-1.3,0.6-2,0.9c-1.4,0.5-2.8,0.8-4.2,0.9c-1.5,0.1-3,0-4.5-0.4
			c-1.5-0.4-2.9-1.1-4.2-1.9C7.6,29,6.6,28,5.7,27c-0.9-1-1.6-2.2-2.1-3.5c-0.5-1.4-0.8-2.8-0.9-4.3c-0.1-1.4,0.1-2.8,0.5-4.1
			c0.4-1.3,0.9-2.6,1.7-3.8c0.9-1.3,2-2.4,3.2-3.4C8.4,7.6,8.7,7.3,9,7c0.1-0.1,0.1-0.3,0-0.4c-0.1-0.1-0.3-0.1-0.4,0
			C7.3,7.7,6.1,8.8,5,10.1c-0.9,1.1-1.6,2.4-2.1,3.8c-0.5,1.4-0.7,2.8-0.8,4.3c0,1.5,0.1,3,0.6,4.4c0.4,1.4,1.1,2.8,2,4
			c0.8,1.2,1.9,2.2,3,3.1c1.2,0.9,2.6,1.7,4.1,2.2c1.5,0.5,3.1,0.8,4.7,0.8c1.5,0,3-0.2,4.5-0.6c1.4-0.4,2.8-1.1,4.1-1.9
			c0.3-0.2,0.7-0.4,1-0.7c0.1-0.1,0.1-0.3,0-0.4C25.8,28.9,25.6,28.9,25.5,29.1L25.5,29.1z"/>
		<path class="st0" d="M25.3,29.7H25c0,0-0.1,0-0.1-0.1c0,0,0-0.1,0-0.1c0,0,0,0,0,0c0,0,0,0,0,0c0.2-0.1,0.3-0.2,0.5-0.2l0.2-0.1
			c0,0,0.1,0,0.1,0c0,0,0,0.1,0,0.1C25.6,29.4,25.5,29.5,25.3,29.7C25.3,29.7,25.3,29.7,25.3,29.7z"/>
	</g>
	<path class="st1" d="M14.4,14.1v4.5c0,2.2,1.8,4.1,4.1,4.1s4.1-1.8,4.1-4.1v-4.5h-1.6v4.5c0,1.3-1,2.3-2.3,2.3
		c-1.3,0-2.4-1-2.4-2.3v-4.5H14.4z"/>
</g>
</svg>
